<svg xmlns="http://www.w3.org/2000/svg" version="1.0" width="531.000000pt" height="515.000000pt" viewBox="0 0 531.000000 515.000000" preserveAspectRatio="xMidYMid meet"><g transform="translate(0.000000,515.000000) scale(0.100000,-0.100000)" fill="#000000" stroke="none"><path d="M2344 5135c-120-15-287-47-370-70l-50-14 20-118c11-65 25-120 30-122 6-2 23-17 38-32 23-22 28-37 28-74 0-40-5-52-34-81-38-38-77-44-126-19-32 17-60 61-60 96 0 12 10 41 22 65 21 43 21 44 4 146-9 56-18 104-20 106-9 9-366-138-366-151 0-8 42-102 111-246 38-79 69-147 69-151 0-4-27-72-61-151-33-79-92-221-129-315l-69-171 16-44c15-41 15-47-2-82-50-106-199-82-212 34-5 41-2 50 26 81 17 20 42 39 55 42 17 4 30 22 50 68 20 50 143 347 209 510 9 23 4 41-48 150-32 68-69 147-82 176l-23 54-58-32c-63-36-221-143-292-199-25-19-46-36-48-37-1-1 31-74 73-163 41-90 75-164 75-167 0-4-83-125-254-369-157-225-189-276-180-284 5-4 103-57 219-116 116-59 215-111 220-115 6-4 82-45 170-90 88-45 245-128 349-183 179-95 190-100 220-89 55 20 85 15 122-22 29-29 34-41 34-79 0-29-7-53-20-70-24-30-80-51-112-42-32 10-78 55-78 76 0 23-28 42-205 134-82 43-271 142-420 220-148 78-342 179-430 225-207 108-215 113-215 126 0 7 105 164 234 349l233 338-54 121c-31 67-57 123-59 125-7 7-187-174-269-270-172-201-326-453-428-699-59-144-142-416-128-424 4-3 142 2 307 11l299 16 38 34c27 24 46 33 73 33 81 0 138-72 114-144-27-84-121-106-187-44-22 21-25 21-240 9-441-23-432-22-437-40-4-14-12-71-31-218l-4-33 69 0c66 0 466 14 680 25 58 2 187 8 288 11l182 7 88-58c48-32 119-81 157-109 68-49 72-51 138-51 65 0 70-2 98-33 51-57 33-143-36-176-37-18-77-15-105 7-26 20-50 60-50 83 0 17-36 46-161 129l-161 107-101-6c-56-3-183-9-282-12-99-4-319-12-490-18l-310-11 0-195c1-174 15-341 34-393 6-15 39 5 208 125 180 128 202 146 202 171 2 61 51 110 111 110 63 0 110-48 110-113 0-71-49-113-127-109-36 3-54-8-219-126-98-70-196-140-217-154-34-24-37-29-32-62 6-44 93-319 101-319 5 0 170 134 389 315 61 50 133 109 160 131 28 21 102 82 166 136 104 87 115 99 112 125-8 59 72 134 129 120 40-11 77-46 89-86 22-72-34-141-114-141-27 0-50-12-106-57-431-350-780-640-781-650-1-30 135-293 152-293 7 0 36 23 535 427 199 161 366 293 370 293 5 0 28-73 52-162 23-90 45-171 48-180 2-10 11-18 19-18 9 0 29-13 45-29 24-24 29-38 29-76 0-40-5-52-34-81-45-45-101-47-146-7-39 35-51 99-26 137 9 14 16 32 16 41 0 17-49 197-55 203-4 4-69-47-365-288-91-74-223-181-295-238-72-58-131-108-133-113-14-35 274-381 433-522l90-79 24 53c38 86 161 391 161 399 0 4-48 27-106 50-90 37-109 41-130 31-34-15-79-14-113 4-36 18-65 77-56 113 30 118 173 129 220 17 11-28 27-37 164-89 83-33 151-63 151-67 0-9-126-322-191-476-21-51-39-96-39-100 0-10 220-157 303-203l57-32-1 54c0 29-4 105-8 168-7 112-8 116-39 147-25 25-32 40-32 72 0 78 40 121 113 121 69 0 121-76 98-142-6-18-20-41-30-53-18-19-18-31-8-222l11-203 72-30c40-16 75-30 77-30 9 0 57 450 57 541 0 57-6 77-45 157-66 137-76 178-82 342-6 164 14 391 47 529 46 193 112 287 430 617 335 347 381 408 421 561 28 106 30 245 5 293-26 50-75 98-110 109-17 6-79 13-137 15-194 9-229 45-178 179l21 55-22 94c-11 51-24 133-27 181-7 97-8 100-80 112-129 21-125 122 10 276 124 142 159 223 197 451 25 154 65 240 153 335 74 79 149 131 274 190 69 33 93 49 91 61-3 15-19 17-113 19-61 0-160-5-221-12zM3704 4916c-3-8 8-34 24-58 80-118 129-256 138-394 14-216-51-411-248-744-135-228-185-401-175-600 9-169 43-267 166-485 31-55 70-131 87-170l30-70 50-6c134-17 224-111 224-234 0-59-13-67-23-16-9 41-71 107-114 122-126 41-257-62-239-189 13-95 76-152 174-157l57-2 8-54c8-53 10-55 50-68 60-18 104-55 132-111 23-46 33-118 18-133-3-4-18 16-32 45-46 90-152 124-247 77-146-70-109-305 52-335 33-6 34-7 34-58 0-49 2-52 36-71 71-38 119-128 112-210l-3-40-18 40c-53 118-178 158-278 89-109-75-91-254 30-309 23-10 41-22 41-26 0-4-7-40-15-80l-15-72 35-30c40-32 69-84 79-139 9-49-9-57-31-15-37 71-122 114-193 98-97-22-142-73-148-166-3-52 0-66 24-101 15-23 40-49 55-58 35-20 35-33 8-115-12-34-19-64-16-67 2-3 51 14 108 36 113 45 316 153 298 159-6 2-50-5-99-14l-89-17-49 41c-26 22-57 41-68 41-32 0-68 45-67 85 1 43 8 54 46 70 50 21 105-10 107-60 1-11 14-30 31-43 27-22 32-23 86-12 88 17 93 20 93 43 0 35 43 97 90 128 70 47 170 38 236-23 21-19 22-19 70 23 27 22 53 45 58 49 5 5 2 26-8 50-9 22-16 53-16 69 0 28-4 31-264 135-222 88-270 104-300 99-83-13-124 92-57 144 29 23 80 15 109-15 19-21 91-54 247-117 322-128 287-120 340-83 51 36 140 49 197 29 32-12 34-11 71 31 20 24 54 66 74 95l36 52-32 37c-18 20-36 47-41 60-7 17-17 24-36 24-14 0-92 5-173 11l-146 11-190 108c-306 173-320 180-353 180-44 0-61 9-77 41-21 40-19 66 10 95 36 36 92 31 120-12 14-21 61-54 150-103 72-40 185-103 252-140l123-68 112-7c62-4 134-9 159-12 42-6 48-4 54 15 11 34 55 80 98 102 37 19 110 23 156 8 9-3 24 22 47 74 39 90 40 97 17 97-26 0-101 85-113 129-12 46 18 39-335 72-191 18-238 25-275 44-25 12-155 72-291 134-182 82-255 111-285 111-52 0-84 31-84 82 0 69 85 103 134 55 13-13 25-28 27-33 4-11 52-34 390-183l206-92 263-24c248-23 264-23 276-7 7 9 14 20 14 24 0 3 21 20 47 37 39 26 56 31 108 31l61 0 22 118c70 376 54 775-45 1152-164 626-557 1174-1102 1539-82 55-386 221-405 221-4 0-9-7-12-14zM1917 4724c-4-4-7-16-7-26 0-14 6-19 23-16 14 2 22 10 22 23 0 20-25 32-38 19zM1273 3765c-17-13-17-15-1-31 20-20 48-12 48 15 0 25-23 33-47 16zM772 3068c2-15 11-24 26-26 18-3 22 1 22 22 0 21-5 26-26 26-21 0-25-4-22-22zM1897 2894c-4-4-7-16-7-26 0-14 6-19 23-16 14 2 22 10 22 23 0 20-25 32-38 19zM1597 2443c-12-11-7-33 8-39 20-8 45 13 38 32-5 14-34 19-46 7zM543 2333c-18-7-16-42 3-50 8-3 23 1 31 10 13 13 14 19 3 31-13 17-17 18-37 9zM1097 2274c-12-12-8-42 6-47 21-8 39 8 35 29-3 19-29 30-41 18zM5130 1743c-38-48-8-103 56-103 57 0 85 69 44 110-29 29-74 26-100-7zM1334 1395c-8-19 3-35 26-35 19 0 30 17 23 38-6 17-42 15-49-3zM4920 1210c-33-33-22-87 21-111 48-25 115 42 90 90-24 43-78 54-111 21zM824 1085c-8-20 4-35 27-35 14 0 19 7 19 25 0 18-5 25-20 25-11 0-23-7-26-15zM4580 703c-51-19-66-77-29-114 44-44 130 4 115 65-5 20-53 59-68 55-2 0-10-3-18-6zM1411 620c-19-11-9-45 14-45 13 0 21 8 23 21 3 23-17 37-37 24zM4118 343c-24-28-29-53-16-76 15-30 27-37 65-37 56 0 84 69 43 110-25 25-72 26-92 3z"/></g></svg>