<?xml version="1.0" standalone="no"?>
<!DOCTYPE svg PUBLIC "-//W3C//DTD SVG 20010904//EN"
 "http://www.w3.org/TR/2001/REC-SVG-20010904/DTD/svg10.dtd">
<svg version="1.0" xmlns="http://www.w3.org/2000/svg"
 width="531.000000pt" height="515.000000pt" viewBox="0 0 531.000000 515.000000"
 preserveAspectRatio="xMidYMid meet">

<g transform="translate(0.000000,515.000000) scale(0.100000,-0.100000)"
fill="#000000" stroke="none">
<path d="M1 3938 c1 -667 3 -1206 4 -1198 2 8 9 60 15 116 7 55 15 106 19 112
4 7 124 17 330 27 l323 17 29 -28 c54 -52 145 -29 176 44 31 75 -23 152 -109
152 -29 0 -47 -8 -75 -34 l-38 -33 -155 -7 c-85 -4 -220 -11 -299 -17 -80 -5
-148 -6 -152 -2 -10 11 62 251 115 388 102 261 258 521 441 734 82 96 262 277
269 270 2 -2 29 -59 59 -126 54 -120 55 -123 38 -145 -10 -13 -63 -88 -118
-168 -55 -80 -152 -221 -216 -313 -64 -92 -117 -174 -117 -181 0 -8 84 -58
188 -111 103 -54 219 -115 257 -135 253 -134 371 -195 620 -325 177 -92 205
-111 205 -134 0 -21 46 -66 78 -76 32 -9 88 12 112 42 39 50 18 147 -37 172
-31 14 -59 14 -98 -1 -31 -10 -43 -6 -241 99 -643 340 -747 395 -829 436 -132
68 -125 56 -75 129 124 179 226 326 309 447 l93 134 -75 163 -75 164 46 38
c64 52 224 162 295 202 l57 32 16 -38 c9 -22 45 -99 80 -173 35 -74 64 -139
64 -144 0 -6 -22 -63 -49 -126 -27 -64 -81 -196 -121 -294 -61 -149 -76 -178
-96 -183 -13 -3 -38 -22 -55 -42 -28 -31 -31 -40 -26 -81 13 -116 162 -140
212 -34 17 35 17 41 2 82 l-16 45 86 210 c47 116 105 258 130 315 24 58 42
112 40 120 -3 9 -44 98 -91 198 -47 100 -86 185 -86 188 0 14 356 163 366 153
2 -2 11 -50 20 -106 17 -102 17 -103 -4 -146 -12 -24 -22 -53 -22 -65 0 -35
28 -79 60 -96 49 -25 88 -19 126 19 29 29 34 41 34 79 0 47 -25 91 -58 102
-15 4 -22 28 -36 119 -10 63 -16 119 -12 124 10 16 254 67 416 87 90 11 -74
13 -1122 14 l-1228 1 1 -1212z m1954 767 c0 -13 -8 -21 -22 -23 -17 -3 -23 2
-23 16 0 10 3 22 7 26 13 13 38 1 38 -19z m-635 -956 c0 -27 -28 -35 -48 -15
-16 16 -16 18 1 31 24 17 47 9 47 -16z m-500 -685 c0 -21 -4 -25 -22 -22 -15
2 -24 11 -26 26 -3 18 1 22 22 22 21 0 26 -5 26 -26z m1115 -189 c0 -13 -8
-21 -22 -23 -17 -3 -23 2 -23 16 0 10 3 22 7 26 13 13 38 1 38 -19z"/>
<path d="M2677 5131 c4 -16 -12 -27 -90 -64 -125 -59 -200 -111 -274 -190 -88
-95 -128 -181 -153 -335 -38 -228 -73 -309 -197 -451 -73 -84 -102 -138 -103
-193 0 -48 27 -74 88 -83 77 -11 78 -14 85 -112 3 -49 15 -131 27 -182 l22
-93 -21 -55 c-50 -132 -17 -168 167 -178 53 -3 112 -8 130 -11 41 -6 97 -54
125 -108 43 -83 16 -305 -53 -435 -38 -71 -128 -174 -380 -436 -309 -321 -368
-405 -416 -592 -36 -142 -57 -371 -51 -543 6 -164 16 -205 82 -342 37 -75 45
-102 45 -147 0 -83 -46 -538 -55 -549 -2 -2 -36 11 -77 28 l-74 30 -11 203
-11 202 23 25 c65 72 20 190 -72 190 -71 0 -112 -41 -113 -113 0 -41 5 -53 32
-80 31 -31 32 -35 39 -147 4 -63 8 -139 8 -168 l1 -53 -57 32 c-80 44 -277
174 -292 192 -10 12 0 43 53 169 82 196 166 406 166 417 0 4 -68 34 -151 66
-140 54 -152 61 -167 93 -47 98 -169 101 -208 5 -19 -45 -10 -85 28 -123 32
-33 85 -40 132 -19 21 10 40 6 130 -31 58 -23 106 -46 106 -50 0 -4 -30 -79
-66 -166 -36 -88 -77 -187 -91 -221 l-25 -63 -42 32 c-66 52 -245 236 -327
338 -91 113 -162 216 -157 229 1 5 61 55 133 113 72 57 180 144 240 193 354
287 416 337 420 334 6 -7 55 -187 55 -204 0 -9 -7 -27 -16 -41 -25 -38 -13
-102 26 -137 45 -40 101 -38 146 7 29 29 34 41 34 81 0 38 -5 52 -29 76 -16
16 -36 29 -44 29 -10 0 -28 53 -63 180 -27 99 -52 180 -57 180 -6 0 -581 -460
-870 -697 -16 -13 -32 -23 -35 -23 -11 0 -118 197 -139 253 -12 32 -14 50 -7
55 6 4 169 138 363 297 515 423 479 395 518 395 50 0 92 26 109 67 40 94 -58
194 -145 148 -41 -21 -73 -72 -68 -108 3 -26 -8 -38 -112 -125 -64 -53 -149
-123 -190 -156 -40 -32 -115 -93 -166 -135 -227 -189 -354 -291 -359 -291 -7
0 -95 275 -101 319 -5 33 -2 38 32 62 21 14 119 84 217 154 165 118 183 129
219 126 78 -4 127 38 127 109 0 65 -47 113 -110 113 -60 0 -109 -49 -111 -110
0 -25 -22 -43 -202 -171 -170 -120 -202 -140 -208 -125 -4 10 -12 59 -18 108
-6 50 -13 101 -15 115 -2 14 -4 -485 -5 -1107 l-1 -1133 1783 0 1783 0 22 68
c28 88 28 97 -7 118 -103 61 -109 226 -10 291 49 32 107 45 149 33 53 -15 106
-58 125 -101 35 -76 43 6 9 87 -7 18 -32 48 -54 67 l-40 34 15 72 c8 40 15 76
15 80 0 4 -18 16 -41 26 -61 28 -92 74 -97 147 -6 74 16 127 67 162 98 68 221
31 275 -84 l21 -45 3 40 c7 82 -41 172 -112 210 -34 19 -36 22 -36 71 0 51 -1
52 -34 58 -161 30 -198 265 -52 335 95 47 201 13 247 -77 29 -58 39 -58 39 0
0 84 -84 189 -165 204 -30 5 -33 9 -41 61 l-9 56 -58 3 c-96 4 -160 62 -173
157 -18 126 114 229 239 188 43 -15 105 -81 114 -122 10 -51 23 -43 23 16 0
125 -87 216 -224 234 l-50 6 -30 70 c-17 39 -59 120 -92 180 -89 159 -101 184
-129 282 -35 119 -43 267 -21 386 27 140 71 250 164 407 309 522 330 793 92
1167 -11 17 -12 25 -3 34 15 15 277 -119 414 -212 400 -268 717 -633 925
-1064 132 -274 207 -531 249 -850 11 -86 13 73 14 1128 l1 1227 -1319 0
c-1290 0 -1319 0 -1314 -19z m-2097 -2807 c11 -12 10 -18 -3 -31 -8 -9 -23
-13 -31 -10 -19 8 -21 43 -3 50 20 9 24 8 37 -9z m558 -68 c4 -21 -14 -37 -35
-29 -14 5 -18 35 -6 47 12 12 38 1 41 -18z m245 -860 c7 -19 -18 -40 -38 -32
-15 6 -20 28 -8 39 12 12 41 7 46 -7z m-513 -321 c0 -18 -5 -25 -19 -25 -11 0
-23 5 -26 10 -11 18 3 40 25 40 15 0 20 -7 20 -25z m578 -479 c-2 -13 -10 -21
-23 -21 -23 0 -33 34 -14 45 20 13 40 -1 37 -24z"/>
<path d="M1009 2746 c-2 -2 -87 -6 -189 -9 -102 -4 -328 -12 -502 -19 l-318
-12 0 -50 0 -51 462 16 c255 10 523 20 596 23 l133 6 159 -107 c114 -75 160
-111 160 -125 0 -34 28 -75 64 -92 42 -20 50 -20 92 0 68 33 85 120 35 176
-28 31 -33 33 -92 32 l-63 -1 -160 108 -159 109 -107 0 c-59 0 -109 -2 -111
-4z m634 -310 c7 -19 -18 -40 -38 -32 -15 6 -20 28 -8 39 12 12 41 7 46 -7z"/>
<path d="M5300 2253 c0 -41 -9 -100 -47 -320 l-6 -33 -61 0 c-52 0 -70 -5
-109 -30 -26 -16 -47 -33 -47 -37 0 -5 -7 -16 -14 -25 -12 -16 -28 -16 -276 7
l-264 24 -195 87 c-332 147 -383 173 -417 209 -37 41 -77 46 -118 14 -20 -16
-26 -29 -26 -58 0 -50 32 -81 85 -81 28 0 107 -31 284 -111 136 -62 267 -122
292 -135 38 -19 82 -26 270 -43 355 -33 324 -26 338 -72 13 -44 88 -129 114
-129 23 0 22 -7 -17 -97 -23 -52 -38 -77 -47 -74 -46 15 -119 11 -156 -8 -43
-22 -87 -68 -98 -102 -6 -19 -12 -21 -54 -15 -25 3 -97 8 -159 12 l-112 7
-123 68 c-67 37 -180 100 -252 140 -89 49 -136 82 -150 103 -28 43 -84 48
-120 12 -29 -29 -31 -55 -10 -95 16 -32 33 -41 77 -41 32 0 45 -6 353 -181
l190 -107 146 -11 c81 -6 159 -11 173 -11 19 0 29 -7 36 -24 5 -13 23 -40 41
-60 l32 -37 -36 -52 c-20 -29 -54 -72 -75 -96 -35 -40 -40 -43 -61 -31 -15 7
-49 11 -92 8 -57 -3 -76 -9 -113 -35 -54 -38 -19 -46 -341 82 -156 63 -228 96
-247 117 -19 20 -36 28 -60 28 -80 -1 -112 -85 -53 -140 19 -18 32 -22 61 -17
30 5 78 -11 300 -99 260 -104 264 -107 264 -135 0 -16 7 -47 16 -69 10 -24 13
-45 8 -50 -5 -4 -31 -26 -57 -49 l-48 -41 -40 32 c-35 28 -50 33 -107 36 -61
3 -71 1 -111 -26 -48 -32 -91 -94 -91 -129 0 -23 -5 -26 -93 -43 -54 -11 -59
-10 -86 12 -17 13 -30 32 -31 43 -1 27 -21 52 -51 64 -54 20 -120 -38 -103
-93 9 -31 45 -66 68 -66 11 0 42 -18 68 -41 l49 -41 95 17 c52 10 97 16 99 13
8 -8 -192 -112 -295 -154 l-105 -43 863 -1 862 0 0 1150 c0 633 -2 1150 -5
1150 -3 0 -5 -21 -5 -47z m-70 -505 c40 -43 11 -108 -48 -108 -41 0 -65 22
-65 58 0 65 70 96 113 50z m-215 -543 c32 -32 31 -50 -4 -86 -36 -35 -54 -36
-86 -4 -30 29 -32 68 -5 95 27 27 66 25 95 -5z m-385 -510 c39 -20 49 -59 23
-93 -41 -55 -123 -30 -123 36 0 33 26 60 68 71 2 1 16 -6 32 -14z m-420 -355
c41 -41 13 -110 -45 -110 -49 0 -72 29 -65 80 6 48 74 66 110 30z"/>
</g>
</svg>
