<svg version="1.0" xmlns="http://www.w3.org/2000/svg" width="708" height="686.6666667" viewBox="0 0 531 515">
  <path d="M234.4 1.5c-12 1.5-28.7 4.7-37 7l-5 1.4 2 11.8c1.1 6.5 2.5 12 3 12.2.6.2 2.3 1.7 3.8 3.2 2.3 2.2 2.8 3.7 2.8 7.4 0 4-.5 5.2-3.4 8.1-3.8 3.8-7.7 4.4-12.6 1.9-3.2-1.7-6-6.1-6-9.6 0-1.2 1-4.1 2.2-6.5 2.1-4.3 2.1-4.4.4-14.6-.9-5.6-1.8-10.4-2-10.6-.9-.9-36.6 13.8-36.6 15.1 0 .8 4.2 10.2 11.1 24.6 3.8 7.9 6.9 14.7 6.9 15.1 0 .4-2.7 7.2-6.1 15.1-3.3 7.9-9.2 22.1-12.9 31.5l-6.9 17.1 1.6 4.4c1.5 4.1 1.5 4.7-.2 8.2-5 10.6-19.9 8.2-21.2-3.4-.5-4.1-.2-5 2.6-8.1 1.7-2 4.2-3.9 5.5-4.2 1.7-.4 3-2.2 5-6.8 2-5 14.3-34.7 20.9-51 .9-2.3.4-4.1-4.8-15-3.2-6.8-6.9-14.7-8.2-17.6l-2.3-5.4-5.8 3.2c-6.3 3.6-22.1 14.3-29.2 19.9-2.5 1.9-4.6 3.6-4.8 3.7-.1.1 3.1 7.4 7.3 16.3 4.1 9 7.5 16.4 7.5 16.7 0 .4-8.3 12.5-25.4 36.9-15.7 22.5-18.9 27.6-18 28.4.5.4 10.3 5.7 21.9 11.6 11.6 5.9 21.5 11.1 22 11.5.6.4 8.2 4.5 17 9s24.5 12.8 34.9 18.3c17.9 9.5 19 10 22 8.9 5.5-2 8.5-1.5 12.2 2.2 2.9 2.9 3.4 4.1 3.4 7.9 0 2.9-.7 5.3-2 7-2.4 3-8 5.1-11.2 4.2-3.2-1-7.8-5.5-7.8-7.6 0-2.3-2.8-4.2-20.5-13.4-8.2-4.3-27.1-14.2-42-22-14.8-7.8-34.2-17.9-43-22.5C54.8 162.2 54 161.7 54 160.4c0-.7 10.5-16.4 23.4-34.9l23.3-33.8-5.4-12.1c-3.1-6.7-5.7-12.3-5.9-12.5-.7-.7-18.7 17.4-26.9 27-17.2 20.1-32.6 45.3-42.8 69.9-5.9 14.4-14.2 41.6-12.8 42.4.4.3 14.2-.2 30.7-1.1l29.9-1.6 3.8-3.4c2.7-2.4 4.6-3.3 7.3-3.3 8.1 0 13.8 7.2 11.4 14.4-2.7 8.4-12.1 10.6-18.7 4.4-2.2-2.1-2.5-2.1-24-.9-44.1 2.3-43.2 2.2-43.7 4-.4 1.4-1.2 7.1-3.1 21.8L.1 244H7c6.6 0 46.6-1.4 68-2.5 5.8-.2 18.7-.8 28.8-1.1l18.2-.7 8.8 5.8c4.8 3.2 11.9 8.1 15.7 10.9 6.8 4.9 7.2 5.1 13.8 5.1 6.5 0 7 .2 9.8 3.3 5.1 5.7 3.3 14.3-3.6 17.6-3.7 1.8-7.7 1.5-10.5-.7-2.6-2-5-6-5-8.3 0-1.7-3.6-4.6-16.1-12.9l-16.1-10.7-10.1.6c-5.6.3-18.3.9-28.2 1.2-9.9.4-31.9 1.2-49 1.8l-31 1.1V274c.1 17.4 1.5 34.1 3.4 39.3.6 1.5 3.9-.5 20.8-12.5 18-12.8 20.2-14.6 20.2-17.1.2-6.1 5.1-11 11.1-11 6.3 0 11 4.8 11 11.3 0 7.1-4.9 11.3-12.7 10.9-3.6-.3-5.4.8-21.9 12.6-9.8 7-19.6 14-21.7 15.4-3.4 2.4-3.7 2.9-3.2 6.2.6 4.4 9.3 31.9 10.1 31.9.5 0 17-13.4 38.9-31.5 6.1-5 13.3-10.9 16-13.1 2.8-2.1 10.2-8.2 16.6-13.6 10.4-8.7 11.5-9.9 11.2-12.5-.8-5.9 7.2-13.4 12.9-12 4 1.1 7.7 4.6 8.9 8.6 2.2 7.2-3.4 14.1-11.4 14.1-2.7 0-5 1.2-10.6 5.7-43.1 35-78 64-78.1 65-.1 3 13.5 29.3 15.2 29.3.7 0 3.6-2.3 53.5-42.7 19.9-16.1 36.6-29.3 37-29.3.5 0 2.8 7.3 5.2 16.2 2.3 9 4.5 17.1 4.8 18 .2 1 1.1 1.8 1.9 1.8.9 0 2.9 1.3 4.5 2.9 2.4 2.4 2.9 3.8 2.9 7.6 0 4-.5 5.2-3.4 8.1-4.5 4.5-10.1 4.7-14.6.7-3.9-3.5-5.1-9.9-2.6-13.7.9-1.4 1.6-3.2 1.6-4.1 0-1.7-4.9-19.7-5.5-20.3-.4-.4-6.9 4.7-36.5 28.8-9.1 7.4-22.3 18.1-29.5 23.8-7.2 5.8-13.1 10.8-13.3 11.3-1.4 3.5 27.4 38.1 43.3 52.2l9 7.9 2.4-5.3c3.8-8.6 16.1-39.1 16.1-39.9 0-.4-4.8-2.7-10.6-5-9-3.7-10.9-4.1-13-3.1-3.4 1.5-7.9 1.4-11.3-.4-3.6-1.8-6.5-7.7-5.6-11.3 3-11.8 17.3-12.9 22-1.7 1.1 2.8 2.7 3.7 16.4 8.9 8.3 3.3 15.1 6.3 15.1 6.7 0 .9-12.6 32.2-19.1 47.6-2.1 5.1-3.9 9.6-3.9 10 0 1 22 15.7 30.3 20.3l5.7 3.2-.1-5.4c0-2.9-.4-10.5-.8-16.8-.7-11.2-.8-11.6-3.9-14.7-2.5-2.5-3.2-4-3.2-7.2 0-7.8 4-12.1 11.3-12.1 6.9 0 12.1 7.6 9.8 14.2-.6 1.8-2 4.1-3 5.3-1.8 1.9-1.8 3.1-.8 22.2l1.1 20.3 7.2 3c4 1.6 7.5 3 7.7 3 .9 0 5.7-45 5.7-54.1 0-5.7-.6-7.7-4.5-15.7-6.6-13.7-7.6-17.8-8.2-34.2-.6-16.4 1.4-39.1 4.7-52.9 4.6-19.3 11.2-28.7 43-61.7 33.5-34.7 38.1-40.8 42.1-56.1 2.8-10.6 3-24.5.5-29.3-2.6-5-7.5-9.8-11-10.9-1.7-.6-7.9-1.3-13.7-1.5-19.4-.9-22.9-4.5-17.8-17.9l2.1-5.5-2.2-9.4c-1.1-5.1-2.4-13.3-2.7-18.1-.7-9.7-.8-10-8-11.2-12.9-2.1-12.5-12.2 1-27.6 12.4-14.2 15.9-22.3 19.7-45.1 2.5-15.4 6.5-24 15.3-33.5 7.4-7.9 14.9-13.1 27.4-19 6.9-3.3 9.3-4.9 9.1-6.1-.3-1.5-1.9-1.7-11.3-1.9-6.1 0-16 .5-22.1 1.2zM370.4 23.4c-.3.8.8 3.4 2.4 5.8 8 11.8 12.9 25.6 13.8 39.4 1.4 21.6-5.1 41.1-24.8 74.4-13.5 22.8-18.5 40.1-17.5 60 .9 16.9 4.3 26.7 16.6 48.5 3.1 5.5 7 13.1 8.7 17l3 7 5 .6c13.4 1.7 22.4 11.1 22.4 23.4 0 5.9-1.3 6.7-2.3 1.6-.9-4.1-7.1-10.7-11.4-12.2-12.6-4.1-25.7 6.2-23.9 18.9 1.3 9.5 7.6 15.2 17.4 15.7l5.7.2.8 5.4c.8 5.3 1 5.5 5 6.8 6 1.8 10.4 5.5 13.2 11.1 2.3 4.6 3.3 11.8 1.8 13.3-.3.4-1.8-1.6-3.2-4.5-4.6-9-15.2-12.4-24.7-7.7-14.6 7-10.9 30.5 5.2 33.5 3.3.6 3.4.7 3.4 5.8 0 4.9.2 5.2 3.6 7.1 7.1 3.8 11.9 12.8 11.2 21l-.3 4-1.8-4c-5.3-11.8-17.8-15.8-27.8-8.9-10.9 7.5-9.1 25.4 3 30.9 2.3 1 4.1 2.2 4.1 2.6 0 .4-.7 4-1.5 8l-1.5 7.2 3.5 3c4 3.2 6.9 8.4 7.9 13.9.9 4.9-.9 5.7-3.1 1.5-3.7-7.1-12.2-11.4-19.3-9.8-9.7 2.2-14.2 7.3-14.8 16.6-.3 5.2 0 6.6 2.4 10.1 1.5 2.3 4 4.9 5.5 5.8 3.5 2 3.5 3.3.8 11.5-1.2 3.4-1.9 6.4-1.6 6.7.2.3 5.1-1.4 10.8-3.6 11.3-4.5 31.6-15.3 29.8-15.9-.6-.2-5 .5-9.9 1.4l-8.9 1.7-4.9-4.1c-2.6-2.2-5.7-4.1-6.8-4.1-3.2 0-6.8-4.5-6.7-8.5.1-4.3.8-5.4 4.6-7 5-2.1 10.5 1 10.7 6 .1 1.1 1.4 3 3.1 4.3 2.7 2.2 3.2 2.3 8.6 1.2 8.8-1.7 9.3-2 9.3-4.3 0-3.5 4.3-9.7 9-12.8 7-4.7 17-3.8 23.6 2.3 2.1 1.9 2.2 1.9 7-2.3 2.7-2.2 5.3-4.5 5.8-4.9.5-.5.2-2.6-.8-5-.9-2.2-1.6-5.3-1.6-6.9 0-2.8-.4-3.1-26.4-13.5-22.2-8.8-27-10.4-30-9.9-8.3 1.3-12.4-9.2-5.7-14.4 2.9-2.3 8-1.5 10.9 1.5 1.9 2.1 9.1 5.4 24.7 11.7 32.2 12.8 28.7 12 34 8.3 5.1-3.6 14-4.9 19.7-2.9 3.2 1.2 3.4 1.1 7.1-3.1 2-2.4 5.4-6.6 7.4-9.5l3.6-5.2-3.2-3.7c-1.8-2-3.6-4.7-4.1-6-.7-1.7-1.7-2.4-3.6-2.4-1.4 0-9.2-.5-17.3-1.1l-14.6-1.1-19-10.8c-30.6-17.3-32-18-35.3-18-4.4 0-6.1-.9-7.7-4.1-2.1-4-1.9-6.6 1-9.5 3.6-3.6 9.2-3.1 12 1.2 1.4 2.1 6.1 5.4 15 10.3 7.2 4 18.5 10.3 25.2 14l12.3 6.8 11.2.7c6.2.4 13.4.9 15.9 1.2 4.2.6 4.8.4 5.4-1.5 1.1-3.4 5.5-8 9.8-10.2 3.7-1.9 11-2.3 15.6-.8.9.3 2.4-2.2 4.7-7.4 3.9-9 4-9.7 1.7-9.7-2.6 0-10.1-8.5-11.3-12.9-1.2-4.6 1.8-3.9-33.5-7.2-19.1-1.8-23.8-2.5-27.5-4.4-2.5-1.2-15.5-7.2-29.1-13.4-18.2-8.2-25.5-11.1-28.5-11.1-5.2 0-8.4-3.1-8.4-8.2 0-6.9 8.5-10.3 13.4-5.5 1.3 1.3 2.5 2.8 2.7 3.3.4 1.1 5.2 3.4 39 18.3l20.6 9.2 26.3 2.4c24.8 2.3 26.4 2.3 27.6.7.7-.9 1.4-2 1.4-2.4 0-.3 2.1-2 4.7-3.7 3.9-2.6 5.6-3.1 10.8-3.1h6.1l2.2-11.8c7-37.6 5.4-77.5-4.5-115.2-16.4-62.6-55.7-117.4-110.2-153.9-8.2-5.5-38.6-22.1-40.5-22.1-.4 0-.9.7-1.2 1.4z"/>
  <path d="M458 444.7c-5.1 1.9-6.6 7.7-2.9 11.4 4.4 4.4 13-.4 11.5-6.5-.5-2-5.3-5.9-6.8-5.5-.2 0-1 .3-1.8.6z"/>
</svg>
